<?xml version="1.0" encoding="utf-8" ?>
<svg baseProfile="full" height="1216.43556" version="1.1" width="1400" xmlns="http://www.w3.org/2000/svg" xmlns:ev="http://www.w3.org/2001/xml-events" xmlns:xlink="http://www.w3.org/1999/xlink"><defs /><polyline fill="none" points="700.0,810.9570399999999 350.0,608.21778 700,0 700.0,810.9570399999999" stroke="black" stroke-width="1" /><polyline fill="none" points="363.46153846153845,584.8247884615384 700.0,31.19065538461538 687.0562130177515,802.259645710059 363.46153846153845,584.8247884615384" stroke="black" stroke-width="1" /><polyline fill="none" points="699.5021620391443,60.84715501251706 674.6102639963586,793.8967665851159 376.38617782990787,564.671802559653 699.5021620391443,60.84715501251706" stroke="black" stroke-width="1" /><polyline fill="none" points="663.1401068361106,785.0804218149058 388.81371568410924,545.2939315001477 698.1036214544122,88.70228065876277 663.1401068361106,785.0804218149058" stroke="black" stroke-width="1" /><polyline fill="none" points="400.7094812906593,527.7327141600944 696.7588708921697,115.48605531861442 653.0466212382086,775.1824330589515 400.7094812906593,527.7327141600944" stroke="black" stroke-width="1" /><polyline fill="none" points="695.0776305208635,140.858992924012 643.3413466248412,765.6651361782261 412.0313331841287,512.8529556510142 695.0776305208635,140.858992924012" stroke="black" stroke-width="1" /><polyline fill="none" points="634.4448076463523,755.9415907733332 422.9177292355416,498.54549554612953 692.7455988718439,164.51601591821665 634.4448076463523,755.9415907733332" stroke="black" stroke-width="1" /><polyline fill="none" points="433.29572422155314,485.6982078681329 690.5032607477865,187.26315341264421 626.7083044377061,745.5476145077487 433.29572422155314,485.6982078681329" stroke="black" stroke-width="1" /><polyline fill="none" points="688.0496085820142,208.73563268553283 619.2693590447772,735.5534065600712 443.0939505431093,475.0458011303406 688.0496085820142,208.73563268553283" stroke="black" stroke-width="1" /><polyline fill="none" points="612.4933817947131,725.5338832743123 452.5153220061441,464.8031023440018 685.1435998594256,228.61248847740896 612.4933817947131,725.5338832743123" stroke="black" stroke-width="1" /><polyline fill="none" points="461.46256346203955,455.71884796451747 682.3493607030905,247.7248498157514 606.6845041665332,715.1563819162432 461.46256346203955,455.71884796451747" stroke="black" stroke-width="1" /><polyline fill="none" points="679.4391739132229,265.7029856657703 601.0990449086681,705.1780152257921 469.8462792486235,448.4105455684118 679.4391739132229,265.7029856657703" stroke="black" stroke-width="1" /><polyline fill="none" points="596.050861614051,695.3023433158929 477.90754442803114,441.3833317260025 676.2319311324856,282.2260378830827 596.050861614051,695.3023433158929" stroke="black" stroke-width="1" /><polyline fill="none" points="485.53540545512556,435.26189734742866 673.148043843315,298.11358809203693 591.8002671464,685.3007877017212 485.53540545512556,435.26189734742866" stroke="black" stroke-width="1" /><polyline fill="none" points="670.019283201126,313.0054034616401 587.7131570813509,675.6839073034791 492.63093921458704,430.5597245056676 670.019283201126,313.0054034616401" stroke="black" stroke-width="1" /><polyline fill="none" points="584.0561487018599,666.2560541189479 499.45356782945396,426.0384044655127 666.713008797308,326.5919669484596 584.0561487018599,666.2560541189479" stroke="black" stroke-width="1" /><polyline fill="none" points="505.88662325129445,422.2135414840876 663.5338987936369,339.6559703011707 581.0496284922227,656.8698036329916 505.88662325129445,422.2135414840876" stroke="black" stroke-width="1" /><polyline fill="none" points="660.3614268589672,351.8565023523946 578.158743675264,647.8445627811107 511.8279618515896,419.507501517484 660.3614268589672,351.8565023523946" stroke="black" stroke-width="1" /><polyline fill="none" points="575.6075597589687,639.062368117125 517.5407874287964,416.9055400111344 657.1016627397365,362.9028818048842 575.6075597589687,639.062368117125" stroke="black" stroke-width="1" /><polyline fill="none" points="522.9085134022941,414.82851469550934 653.9672741635532,373.52440050920114 573.580673360635,630.4379891393704 522.9085134022941,414.82851469550934" stroke="black" stroke-width="1" /><polyline fill="none" points="650.8754818249794,383.40569237959227 571.631744131468,622.1453170453757 527.8303198800897,413.61994460643564 650.8754818249794,383.40569237959227" stroke="black" stroke-width="1" /><polyline fill="none" points="569.9470739679535,614.1251104131087 532.5628261087394,412.4578579823263 647.7628507535552,392.2795161501121 569.9470739679535,614.1251104131087" stroke="black" stroke-width="1" /><polyline fill="none" points="536.9935962873861,411.6817679118565 644.7699362618013,400.8120390063812 568.6796325187009,606.3388280092144 536.9935962873861,411.6817679118565" stroke="black" stroke-width="1" /><polyline fill="none" points="641.8433861178358,408.7169155064902 567.4609388174965,598.8520180054697 541.0262805116341,411.5677351270347 641.8433861178358,408.7169155064902" stroke="black" stroke-width="1" /><polyline fill="none" points="566.4442211903479,591.6487763562991 544.903861496488,411.45808821855223 638.9434182360094,415.75275630840594 566.4442211903479,591.6487763562991" stroke="black" stroke-width="1" /><polyline fill="none" points="548.5207675249312,411.6232677604697 636.154987580407,422.5179878487095 565.7548575878318,584.7247183333826 548.5207675249312,411.6232677604697" stroke="black" stroke-width="1" /><polyline fill="none" points="633.4472902730002,428.75670825196613 565.0920079700279,578.0669702344244 551.7871722460108,412.28224624091183 633.4472902730002,428.75670825196613" stroke="black" stroke-width="1" /><polyline fill="none" points="564.5802835191042,571.6906346962123 554.9279460162795,412.91587939518314 630.7985592440042,434.25416696136017 564.5802835191042,571.6906346962123" stroke="black" stroke-width="1" /><polyline fill="none" points="557.8460465250382,413.736582763113 628.2517024853541,439.54018495116213 564.3212744039478,565.6154788526316 557.8460465250382,413.736582763113" stroke="black" stroke-width="1" /><polyline fill="none" points="625.7928398668386,444.38923471660326 564.0722271778358,559.7739828491885 560.459384730492,414.9155309151703 625.7928398668386,444.38923471660326" stroke="black" stroke-width="1" /><polyline fill="none" points="563.9332716990917,554.2025039286493 562.9722099280438,416.0491349075331 623.4136257065405,448.61282199398966 563.9332716990917,554.2025039286493" stroke="black" stroke-width="1" /><polyline fill="none" points="565.2968797656782,417.3015844108583 621.1259197831771,452.6739636068612 563.9857181631911,548.9370839471958 565.2968797656782,417.3015844108583" stroke="black" stroke-width="1" /><polyline fill="none" points="618.92821972087,456.3763913122587 564.0361474555943,543.8741801188751 567.3596236101087,418.80446159937367 618.92821972087,456.3763913122587" stroke="black" stroke-width="1" /><polyline fill="none" points="564.1639734615371,539.0638063296634 569.3430311528302,420.2495358191 616.8219025570495,459.55667650523577 564.1639734615371,539.0638063296634" stroke="black" stroke-width="1" /><polyline fill="none" points="571.169141591454,421.7613489224129 614.7965975918376,462.6146430369445 564.4334030049955,534.5521733524615 571.169141591454,421.7613489224129" stroke="black" stroke-width="1" /><polyline fill="none" points="612.8595516461897,465.38147112600285 564.6924698737055,530.2140647205366 572.7726189012516,423.43904593024325 612.8595516461897,465.38147112600285" stroke="black" stroke-width="1" /><polyline fill="none" points="565.0032448363033,526.1073332286022 574.3144240068261,425.0522161300801 611.018924461194,467.717081206872 565.0032448363033,526.1073332286022" stroke="black" stroke-width="1" /><polyline fill="none" points="575.7261355627634,426.6931724791875 609.2490906294674,469.9628601307847 565.4156637103979,522.283711661317 575.7261355627634,426.6931724791875" stroke="black" stroke-width="1" /><polyline fill="none" points="607.5631895941185,471.9752005742667 565.8122203201042,518.6071524620044 576.9506376408923,428.43478894438283 607.5631895941185,471.9752005742667" stroke="black" stroke-width="1" /><polyline fill="none" points="566.2406209862883,515.1389846344035 578.1280434852472,430.1094201609168 605.9738600322789,473.63534611504116 566.2406209862883,515.1389846344035" stroke="black" stroke-width="1" /><polyline fill="none" points="579.1990364293638,431.7834942360754 604.4456585305101,475.23163990424734 566.7390215802527,511.9330042344678 579.1990364293638,431.7834942360754" stroke="black" stroke-width="1" /><polyline fill="none" points="602.9954032631924,476.643230840025 567.2182529206032,508.85033077299113 580.1142813075879,433.5088687208427 602.9954032631924,476.643230840025" stroke="black" stroke-width="1" /><polyline fill="none" points="567.7142540124103,505.9525822325239 580.9943244597266,435.16788264850356 601.6384359843162,477.77051358589034 567.7142540124103,505.9525822325239" stroke="black" stroke-width="1" /><polyline fill="none" points="581.7883287491338,436.8064453768646 600.3336597546274,478.85443930306855 568.2555645792073,503.2931154303832 581.7883287491338,436.8064453768646" stroke="black" stroke-width="1" /><polyline fill="none" points="599.099886863265,479.7943883848883 568.7760555088198,500.73593581294017 582.4541579073697,438.45982780025014 599.099886863265,479.7943883848883" stroke="black" stroke-width="1" /><polyline fill="none" points="569.3021363703025,498.34070088937517 583.0943782518272,440.049618591967 597.9538195366126,480.5077080965993 569.3021363703025,498.34070088937517" stroke="black" stroke-width="1" /><polyline fill="none" points="583.6658952243189,441.60569895752974 596.8518317225238,481.19359243478294 569.8545886339185,496.15858543045806 583.6658952243189,441.60569895752974" stroke="black" stroke-width="1" /><polyline fill="none" points="595.813476219116,481.7691690884627 570.3857927335494,494.06039748919164 584.1331098779649,443.1504478087195 595.813476219116,481.7691690884627" stroke="black" stroke-width="1" /><polyline fill="none" points="570.9145357006422,492.1023225014811 584.5823547372399,444.63578324255576 594.8558246607131,482.1665980658865 570.9145357006422,492.1023225014811" stroke="black" stroke-width="1" /><polyline fill="none" points="584.977488195835,446.07927612037616 593.9350058545566,482.5487413134093 571.4554184889189,490.3322053329771 584.977488195835,446.07927612037616" stroke="black" stroke-width="1" /><polyline fill="none" points="593.0704063404936,482.8481053141619 571.9754980930311,488.63016959403086 585.2887542783218,447.49346185859866 593.0704063404936,482.8481053141619" stroke="black" stroke-width="1" /><polyline fill="none" points="572.4875464078499,487.04798852728345 585.5880485884053,448.85325583765876 592.2787578815457,483.0096392838973 572.4875464078499,487.04798852728345" stroke="black" stroke-width="1" /><polyline fill="none" points="585.8453835612183,450.1669628932833 591.5175574402498,483.16496040864286 573.0013093752871,485.62948754136033 585.8453835612183,450.1669628932833" stroke="black" stroke-width="1" /><polyline fill="none" points="590.8053940531357,483.2597499137473 573.4953122285921,484.26554428566504 586.0361531955228,451.4397623940704 590.8053940531357,483.2597499137473" stroke="black" stroke-width="1" /><polyline fill="none" points="573.9776522657817,483.0030142129114 586.2195855362002,452.66360806790414 590.1581732151606,483.24987546371517 573.9776522657817,483.0030142129114" stroke="black" stroke-width="1" /><polyline fill="none" points="586.3710696776986,453.84000296774303 589.5358454863383,483.24038080022274 574.45432216624,481.88135993425107 586.3710696776986,453.84000296774303" stroke="black" stroke-width="1" /><polyline fill="none" points="588.9557868971037,483.1881107669161 574.9126586089884,480.80284620477 586.470481878445,454.9687763446343 588.9557868971037,483.1881107669161" stroke="black" stroke-width="1" /><polyline fill="none" points="575.3571902731983,479.80922813322627 586.5660705330087,456.0541353608759 588.4327639500304,483.05815374254337 575.3571902731983,479.80922813322627" stroke="black" stroke-width="1" /><polyline fill="none" points="586.6378664336632,457.09275145247847 587.9298572701523,482.9331950652619 575.7910624332161,478.935517491659 586.6378664336632,457.09275145247847" stroke="black" stroke-width="1" /><polyline fill="none" points="587.4629805456548,482.77943823550794 576.208247202464,478.0954111055367 586.6696015918168,458.0807009441334 587.4629805456548,482.77943823550794" stroke="black" stroke-width="1" /><polyline fill="none" points="576.6106069866698,477.3256145608673 586.7001161669643,459.030652378417 587.0455815626169,482.5696757864833 576.6106069866698,477.3256145608673" stroke="black" stroke-width="1" /><polyline fill="none" points="586.7134032975664,459.9359994325734 586.644236386619,482.36798112395957 576.9991760755504,476.65678320977906 586.7134032975664,459.9359994325734" stroke="black" stroke-width="1" /><polyline fill="none" points="586.273272528501,482.14831966572183 577.372800199474,476.013676141425 586.6964751910639,460.7903194415406 586.273272528501,482.14831966572183" stroke="black" stroke-width="1" /><polyline fill="none" points="577.7314030837659,475.4281624221986 586.6801981655807,461.61178098862445 585.9447390883189,481.88985207943244 577.7314030837659,475.4281624221986" stroke="black" stroke-width="1" /><polyline fill="none" points="586.6519112779937,462.39170679980936 585.6288415496822,481.6413255541542 578.0744995527747,474.92676028287593 586.6519112779937,462.39170679980936" stroke="black" stroke-width="1" /><polyline fill="none" points="585.3382899344165,481.38307304372046 578.4044000037446,474.4446428412195 586.6013873801637,463.1221439630367 585.3382899344165,481.38307304372046" stroke="black" stroke-width="1" /><polyline fill="none" points="578.7196687489916,474.0091621151355 586.5528067091734,463.8244873892168 585.0837275811309,481.0994610849287 578.7196687489916,474.0091621151355" stroke="black" stroke-width="1" /><polyline fill="none" points="586.4963036657871,464.4889094544365 584.838956087587,480.82675727839813 579.0187700919453,473.64299855126245 586.4963036657871,464.4889094544365" stroke="black" stroke-width="1" /><polyline fill="none" points="584.6151027800623,480.550458865816 579.306367537093,473.2909182013845 586.423949785567,465.1066613548742 584.6151027800623,480.550458865816" stroke="black" stroke-width="1" /><polyline fill="none" points="579.5801207004959,472.9761390919033 586.3543787468936,465.7006535668334 584.4214496231559,480.2591388745117 579.5801207004959,472.9761390919033" stroke="black" stroke-width="1" /><polyline fill="none" points="586.2800353190576,466.2605953094364 584.2352446645921,479.9790234982575 579.8378097242867,472.71784894642377 586.2800353190576,466.2605953094364" stroke="black" stroke-width="1" /><polyline fill="none" points="584.0661125515035,479.6997475539562 580.0855876317778,472.4694930373089 586.1948844433823,466.77748578037944 584.0661125515035,479.6997475539562" stroke="black" stroke-width="1" /><polyline fill="none" points="580.3205605860702,472.25056968127313 586.1130086013869,467.27449584859386 583.9220528605252,479.4132407126991 580.3205605860702,472.25056968127313" stroke="black" stroke-width="1" /><polyline fill="none" points="586.0287410728922,467.74137065105947 583.7835339268923,479.13775336533655 580.5401059894094,472.0771389493418 586.0287410728922,467.74137065105947" stroke="black" stroke-width="1" /><polyline fill="none" points="583.6587866985276,478.8661912724137 580.7512073387741,471.9103786301771 585.9375889815705,468.16924836726537 583.6587866985276,478.8661912724137" stroke="black" stroke-width="1" /><polyline fill="none" points="580.9506835558047,471.76648900468047 585.8499427399149,468.5806692482326 583.5546288853459,478.59312580057775 580.9506835558047,471.76648900468047" stroke="black" stroke-width="1" /><polyline fill="none" points="700.0,810.9570399999999 350.0,608.21778 0,1216.43556 700.0,810.9570399999999" stroke="black" stroke-width="1" /><polyline fill="none" points="336.53846153846155,631.6107715384614 26.923076923076923,1200.840232307692 686.0207100591716,804.059106597633 336.53846153846155,631.6107715384614" stroke="black" stroke-width="1" /><polyline fill="none" points="52.27298588984979,1185.579419780382 672.5790851160674,797.4264783261264 325.60517401351495,652.9172580093045 52.27298588984979,1185.579419780382" stroke="black" stroke-width="1" /><polyline fill="none" points="659.2339346890461,791.868431390864 315.0923975472201,673.404264231269 75.61763776674196,1170.436689457708 659.2339346890461,791.868431390864" stroke="black" stroke-width="1" /><polyline fill="none" points="305.88182986335556,692.5208959707475 98.06441841759981,1155.8763718397524 645.6434691188272,788.047372336244 305.88182986335556,692.5208959707475" stroke="black" stroke-width="1" /><polyline fill="none" points="119.12515113687778,1141.729102628079 632.5757137628475,784.3732770914172 298.6988806815679,709.7981346883371 119.12515113687778,1141.729102628079" stroke="black" stroke-width="1" /><polyline fill="none" points="619.7342971058752,781.5050023836063 291.7921987760029,726.410864224481 138.3793490587623,1127.8743295417532 619.7342971058752,781.5050023836063" stroke="black" stroke-width="1" /><polyline fill="none" points="285.891704556109,741.8517667366838 156.8930009067282,1114.552432343363 606.8941973924226,779.9798779356478 285.891704556109,741.8517667366838" stroke="black" stroke-width="1" /><polyline fill="none" points="174.20073923310105,1101.6842571738355 594.547947667949,778.513412120303 281.59589819753177,755.6914779073434 174.20073923310105,1101.6842571738355" stroke="black" stroke-width="1" /><polyline fill="none" points="582.5113303806252,777.6356454198044 277.46531516043825,768.9988924945161 189.90499273877506,1089.2208490294497 582.5113303806252,777.6356454198044" stroke="black" stroke-width="1" /><polyline fill="none" points="274.0976104519127,781.3151215920136 205.00523649423084,1077.2368027367709 570.6492642295208,777.7771637341201 274.0976104519127,781.3151215920136" stroke="black" stroke-width="1" /><polyline fill="none" points="219.06846833020353,1065.719124313592 559.2434313919205,777.9132390363467 271.98110498569315,792.2537370813051 219.06846833020353,1065.719124313592" stroke="black" stroke-width="1" /><polyline fill="none" points="548.1948803762963,778.4647966534604 269.94600357586665,802.7716365902392 231.72717648582247,1054.6708809420484 548.1948803762963,778.4647966534604" stroke="black" stroke-width="1" /><polyline fill="none" points="268.476048687788,812.4600690653087 243.8990112508407,1044.0475700078719 537.4364637728921,779.7723071308392 268.476048687788,812.4600690653087" stroke="black" stroke-width="1" /><polyline fill="none" points="255.18891327091958,1033.8831368202937 527.091832423465,781.0295287437034 267.9650050179084,820.9763409020389 255.18891327091958,1033.8831368202937" stroke="black" stroke-width="1" /><polyline fill="none" points="517.1254159847897,782.565944595947 267.47361687379345,829.1650638219718 265.26339414452997,1024.217090965511 517.1254159847897,782.565944595947" stroke="black" stroke-width="1" /><polyline fill="none" points="267.38860830728333,836.667064865954 274.9503949845399,1014.922816105143 507.52015415103943,784.6467569140242 267.38860830728333,836.667064865954" stroke="black" stroke-width="1" /><polyline fill="none" points="283.89538572171296,1006.0660445977924 498.28432546474113,786.6475379890984 268.0234843616845,843.1824102402554 283.89538572171296,1006.0660445977924" stroke="black" stroke-width="1" /><polyline fill="none" points="489.4281392684697,788.8219561526043 268.633942106301,849.447165407853 291.8004916273574,997.7105027345159 489.4281392684697,788.8219561526043" stroke="black" stroke-width="1" /><polyline fill="none" points="269.52496324172625,855.1496014588785 299.40155499816944,989.6763278659807 480.9703248059026,791.3730194336149 269.52496324172625,855.1496014588785" stroke="black" stroke-width="1" /><polyline fill="none" points="306.38496922154377,982.049277541659 472.8378108995881,793.825964896125 270.94265577941155,860.0303582312931 306.38496922154377,982.049277541659" stroke="black" stroke-width="1" /><polyline fill="none" points="465.07261262573513,796.3722877167083 272.305821681032,864.7233935893842 312.488340121705,974.9078548560839 465.07261262573513,796.3722877167083" stroke="black" stroke-width="1" /><polyline fill="none" points="273.85130315951943,868.9612574842572 318.3569659872446,968.0411022738001 457.7179468770345,799.1641711693064 273.85130315951943,868.9612574842572" stroke="black" stroke-width="1" /><polyline fill="none" points="323.71700371377494,961.545835692858 450.64615288789923,801.8486744891122 275.7692147192985,872.5222027999725 323.71700371377494,961.545835692858" stroke="black" stroke-width="1" /><polyline fill="none" points="443.9201168044915,804.566887116453 277.61336044985524,875.946188680468 328.3402003711102,955.5081838245347 443.9201168044915,804.566887116453" stroke="black" stroke-width="1" /><polyline fill="none" points="279.5643927545189,879.0062654167782 332.7855817723941,949.7027493357624 437.59874280256946,807.4299401280039 279.5643927545189,879.0062654167782" stroke="black" stroke-width="1" /><polyline fill="none" points="336.8168571966316,944.230718212387 431.5204985699521,810.1828757160335 281.7664106176771,881.5148982166093 336.8168571966316,944.230718212387" stroke="black" stroke-width="1" /><polyline fill="none" points="425.760725956403,812.9264150429786 283.88373548609843,883.9270451395238 340.2377752258535,939.1805527058713 425.760725956403,812.9264150429786" stroke="black" stroke-width="1" /><polyline fill="none" points="286.05119855301206,886.0521800459218 343.52711948472074,934.3246243342214 420.38728259473413,815.7389444661687 286.05119855301206,886.0521800459218" stroke="black" stroke-width="1" /><polyline fill="none" points="346.48327960433664,929.7636366469885 415.22051013159097,818.4432996807747 288.3755093626784,887.7333899151935 346.48327960433664,929.7636366469885" stroke="black" stroke-width="1" /><polyline fill="none" points="410.34185625586355,821.1083031513291 290.6104236027422,889.3499378664163 348.9393787063184,925.5845853586939 410.34185625586355,821.1083031513291" stroke="black" stroke-width="1" /><polyline fill="none" points="292.8538449528797,890.7435781545809 351.30101245822397,921.5662668122567 405.8230865903642,823.7865829591465 292.8538449528797,890.7435781545809" stroke="black" stroke-width="1" /><polyline fill="none" points="353.3980153094601,917.8055097409832 401.47811575815325,826.3618520051247 295.1824668896712,891.7844216771348 353.3980153094601,917.8055097409832" stroke="black" stroke-width="1" /><polyline fill="none" points="397.3898215709039,828.8781046848173 297.42152644427847,892.7852327565136 355.0900078579772,914.3852249311307 397.3898215709039,828.8781046848173" stroke="black" stroke-width="1" /><polyline fill="none" points="299.63954496018994,893.6160016863064 356.71692377001284,911.0964895370417 393.6301955474149,831.3680238002592 299.63954496018994,893.6160016863064" stroke="black" stroke-width="1" /><polyline fill="none" points="358.13666499222063,908.030010085627 390.0151705248294,833.7621767958763 301.8894341921911,894.1703866247418 358.13666499222063,908.030010085627" stroke="black" stroke-width="1" /><polyline fill="none" points="386.6257191274202,836.0855694816019 304.05278922296145,894.7034490655451 359.23239784357446,905.2629162162415 386.6257191274202,836.0855694816019" stroke="black" stroke-width="1" /><polyline fill="none" points="306.1750818622158,895.109582417495 360.28598712372235,902.60224903414 383.53146384798924,838.35572382529 306.1750818622158,895.109582417495" stroke="black" stroke-width="1" /><polyline fill="none" points="361.1800439208095,900.1312288337996 380.55621838699795,840.5385645403749 308.2906573260079,895.3027226642758 361.1800439208095,900.1312288337996" stroke="black" stroke-width="1" /><polyline fill="none" points="377.776773730806,842.644878314371 310.32486450273103,895.4884344400267 361.8183796827324,897.9202153522831 377.776773730806,842.644878314371" stroke="black" stroke-width="1" /><polyline fill="none" points="312.30538431734647,895.5819644751135 362.43216406919674,895.794240850825 375.25864336874986,844.6809200897841 312.30538431734647,895.5819644751135" stroke="black" stroke-width="1" /><polyline fill="none" points="362.9254901961026,893.8283438984772 372.8373641744651,846.6386525661428 314.25231146652936,895.5145175298583 362.9254901961026,893.8283438984772" stroke="black" stroke-width="1" /><polyline fill="none" points="370.58409291646757,848.5184935262857 316.12435680228214,895.449664697882 363.22005183919356,892.0856573457006 370.58409291646757,848.5184935262857" stroke="black" stroke-width="1" /><polyline fill="none" points="317.9357296883172,895.3202797997211 363.50328418831947,890.4099971987999 368.559155869231,850.3185622291102 317.9357296883172,895.3202797997211" stroke="black" stroke-width="1" /><polyline fill="none" points="363.69774079143144,888.8680189307349 366.6121010161189,852.0493975202875 319.695807038437,895.0721159201446 363.69774079143144,888.8680189307349" stroke="black" stroke-width="1" /><polyline fill="none" points="364.8076281708234,853.7041174587434 321.38818910585985,894.8334968051672 363.74042876756187,887.5155611818122 364.8076281708234,853.7041174587434" stroke="black" stroke-width="1" /><polyline fill="none" points="323.0171214005407,894.5520377427305 363.7814748984565,886.2151210386173 363.200300987351,855.2751913158198 323.0171214005407,894.5520377427305" stroke="black" stroke-width="1" /><polyline fill="none" points="363.75912205572166,885.0251237415866 361.65479408016597,856.7858392553163 324.58412142573997,894.1856179734557 363.75912205572166,885.0251237415866" stroke="black" stroke-width="1" /><polyline fill="none" points="360.22899897807264,858.2242922829371 326.09085221920077,893.83329127223 363.6233480911967,883.9943225316385 360.22899897807264,858.2242922829371" stroke="black" stroke-width="1" /><polyline fill="none" points="327.53440975273907,893.4548693975918 363.4927962022304,883.0031675220731 358.97151477709826,859.5793144796546 327.53440975273907,893.4548693975918" stroke="black" stroke-width="1" /><polyline fill="none" points="363.3189007628023,882.1022500973647 357.76239535308446,860.8822204380368 328.9107363300492,893.0182301937368 363.3189007628023,882.1022500973647" stroke="black" stroke-width="1" /><polyline fill="none" points="356.65271615989076,862.118220813256 330.23412726977045,892.5983848054148 363.0625090473057,881.3336335864374 356.65271615989076,862.118220813256" stroke="black" stroke-width="1" /><polyline fill="none" points="331.4967573381372,892.1651251431463 362.8159785516359,880.5945792490072 355.68517928213095,863.2738709797902 331.4967573381372,892.1651251431463" stroke="black" stroke-width="1" /><polyline fill="none" points="362.5417170412703,879.9283981617297 354.75485536120806,864.3850730629962 332.6907942497961,891.6944817977071 362.5417170412703,879.9283981617297" stroke="black" stroke-width="1" /><polyline fill="none" points="353.90623762615377,865.4354349374081 333.8389066648528,891.2419401194003 362.20958321761196,879.3709764992557 353.90623762615377,865.4354349374081" stroke="black" stroke-width="1" /><polyline fill="none" points="334.93008653226656,890.7853645955485 361.8902237717866,878.8349941314923 353.17638566100425,866.410432231952 334.93008653226656,890.7853645955485" stroke="black" stroke-width="1" /><polyline fill="none" points="361.5550761521411,878.3571263661254 352.47460492528353,867.3479296305518 335.9541245945694,890.3073554328784 361.5550761521411,878.3571263661254" stroke="black" stroke-width="1" /><polyline fill="none" points="351.83920183564067,868.2309844691027 336.9387765775529,889.8477312380032 361.1813886784295,877.967659370086 351.83920183564067,868.2309844691027" stroke="black" stroke-width="1" /><polyline fill="none" points="337.8711847352789,889.3908053969294 360.82207379986073,877.5931718738943 351.30197040870365,869.0448237355575 337.8711847352789,889.3908053969294" stroke="black" stroke-width="1" /><polyline fill="none" points="360.45591597712394,877.264389253189 350.7854017289565,869.8273614917641 338.7398282445806,888.9244047760163 360.45591597712394,877.264389253189" stroke="black" stroke-width="1" /><polyline fill="none" points="350.32211044109584,870.561863156543 339.57506238814,888.475942640523 360.0661542257382,877.0065997879335 350.32211044109584,870.561863156543" stroke="black" stroke-width="1" /><polyline fill="none" points="340.3631813049707,888.0348140692696 359.6913833109443,876.7587253021109 349.93907470509106,871.2338997301094 340.3631813049707,888.0348140692696" stroke="black" stroke-width="1" /><polyline fill="none" points="359.31629451841144,876.54623201088 349.57077111277874,871.880088743154 341.0921471977953,887.5929455285623 359.31629451841144,876.54623201088" stroke="black" stroke-width="1" /><polyline fill="none" points="349.2446701929717,872.4844293887465 341.79307594089596,887.1680719317284 358.9289243520484,876.3900088331055 349.2446701929717,872.4844293887465" stroke="black" stroke-width="1" /><polyline fill="none" points="342.45214703363257,886.7535310433198 358.55645303823775,876.2397942390917 348.9834193022279,873.0332409908455 342.45214703363257,886.7535310433198" stroke="black" stroke-width="1" /><polyline fill="none" points="358.1882594330066,876.1164652680052 348.73221652266653,873.5609444544021 343.0573821259162,886.3444131288846 358.1882594330066,876.1164652680052" stroke="black" stroke-width="1" /><polyline fill="none" points="348.513953661253,874.0526163264976 343.6393389454197,885.9510305188508 357.8161707494776,876.0370864625626 348.513953661253,874.0526163264976" stroke="black" stroke-width="1" /><polyline fill="none" points="344.1846017071142,885.5697249782243 357.45839316916124,875.9607606880985 348.34744012455536,874.4955820438718 344.1846017071142,885.5697249782243" stroke="black" stroke-width="1" /><polyline fill="none" points="357.1079718982149,875.9044076633205 348.18733095465376,874.92151061827 344.68165440677194,885.1979820045741 357.1079718982149,875.9044076633205" stroke="black" stroke-width="1" /><polyline fill="none" points="348.05249724127367,875.3167595177431 345.15958969490435,884.8405368376028 356.75968441140947,875.8818058115675 348.05249724127367,875.3167595177431" stroke="black" stroke-width="1" /><polyline fill="none" points="345.6057471840007,884.4959702596784 356.42479259717345,875.8600732618049 347.9583914698401,875.6698060847406 345.6057471840007,884.4959702596784" stroke="black" stroke-width="1" /><polyline fill="none" points="356.09916178458366,875.8527552934563 347.86790515115393,876.0092739376228 346.0093400532539,884.1635389148237 356.09916178458366,875.8527552934563" stroke="black" stroke-width="1" /><polyline fill="none" points="347.7964218781578,876.3228995136689 346.3974101198435,883.8438933909249 355.7798256343365,875.8708377634645 347.7964218781578,876.3228995136689" stroke="black" stroke-width="1" /><polyline fill="none" points="346.7582722550163,883.5372374052532 355.4727716437142,875.888224753857 347.75649304649846,876.6003740479605 346.7582722550163,883.5372374052532" stroke="black" stroke-width="1" /><polyline fill="none" points="355.1759916976674,875.9156151113225 347.71809993913377,876.8671764847794 347.0820306951183,883.2440980862558 355.1759916976674,875.9156151113225" stroke="black" stroke-width="1" /><polyline fill="none" points="347.69363573744084,877.1124427002209 347.3933368875241,882.9622333564506 354.8882087761203,875.9616469416648 347.69363573744084,877.1124427002209" stroke="black" stroke-width="1" /><polyline fill="none" points="700.0,810.9570399999999 1050.0,608.21778 700,0 700.0,810.9570399999999" stroke="black" stroke-width="1" /><polyline fill="none" points="1036.5384615384614,584.8247884615384 700.0,31.19065538461538 712.9437869822485,802.259645710059 1036.5384615384614,584.8247884615384" stroke="black" stroke-width="1" /><polyline fill="none" points="700.4978379608557,60.84715501251706 725.3897360036412,793.8967665851159 1023.6138221700918,564.671802559653 700.4978379608557,60.84715501251706" stroke="black" stroke-width="1" /><polyline fill="none" points="736.8598931638893,785.0804218149058 1011.1862843158904,545.2939315001477 701.8963785455877,88.70228065876277 736.8598931638893,785.0804218149058" stroke="black" stroke-width="1" /><polyline fill="none" points="999.2905187093402,527.7327141600944 703.24112910783,115.48605531861442 746.9533787617913,775.1824330589515 999.2905187093402,527.7327141600944" stroke="black" stroke-width="1" /><polyline fill="none" points="704.9223694791361,140.858992924012 756.6586533751586,765.6651361782261 987.9686668158707,512.8529556510142 704.9223694791361,140.858992924012" stroke="black" stroke-width="1" /><polyline fill="none" points="765.5551923536475,755.9415907733332 977.0822707644578,498.54549554612953 707.2544011281558,164.51601591821665 765.5551923536475,755.9415907733332" stroke="black" stroke-width="1" /><polyline fill="none" points="966.7042757784462,485.6982078681329 709.4967392522132,187.26315341264421 773.2916955622935,745.5476145077487 966.7042757784462,485.6982078681329" stroke="black" stroke-width="1" /><polyline fill="none" points="711.9503914179854,208.73563268553283 780.7306409552224,735.5534065600712 956.9060494568901,475.0458011303406 711.9503914179854,208.73563268553283" stroke="black" stroke-width="1" /><polyline fill="none" points="787.5066182052865,725.5338832743123 947.4846779938553,464.8031023440018 714.8564001405739,228.61248847740896 787.5066182052865,725.5338832743123" stroke="black" stroke-width="1" /><polyline fill="none" points="938.5374365379597,455.71884796451747 717.650639296909,247.7248498157514 793.3154958334661,715.1563819162432 938.5374365379597,455.71884796451747" stroke="black" stroke-width="1" /><polyline fill="none" points="720.5608260867766,265.7029856657703 798.9009550913312,705.1780152257921 930.1537207513757,448.4105455684118 720.5608260867766,265.7029856657703" stroke="black" stroke-width="1" /><polyline fill="none" points="803.9491383859482,695.3023433158929 922.092455571968,441.3833317260025 723.768068867514,282.2260378830827 803.9491383859482,695.3023433158929" stroke="black" stroke-width="1" /><polyline fill="none" points="914.4645945448735,435.26189734742866 726.8519561566845,298.11358809203693 808.1997328535991,685.3007877017212 914.4645945448735,435.26189734742866" stroke="black" stroke-width="1" /><polyline fill="none" points="729.9807167988735,313.0054034616401 812.2868429186481,675.6839073034791 907.369060785412,430.5597245056676 729.9807167988735,313.0054034616401" stroke="black" stroke-width="1" /><polyline fill="none" points="815.943851298139,666.2560541189479 900.5464321705451,426.0384044655127 733.2869912026913,326.5919669484596 815.943851298139,666.2560541189479" stroke="black" stroke-width="1" /><polyline fill="none" points="894.1133767487046,422.2135414840876 736.4661012063623,339.6559703011707 818.950371507776,656.8698036329916 894.1133767487046,422.2135414840876" stroke="black" stroke-width="1" /><polyline fill="none" points="739.638573141032,351.8565023523946 821.8412563247348,647.8445627811107 888.1720381484095,419.507501517484 739.638573141032,351.8565023523946" stroke="black" stroke-width="1" /><polyline fill="none" points="824.3924402410299,639.062368117125 882.4592125712027,416.9055400111344 742.8983372602627,362.9028818048842 824.3924402410299,639.062368117125" stroke="black" stroke-width="1" /><polyline fill="none" points="877.0914865977049,414.82851469550934 746.032725836446,373.52440050920114 826.4193266393636,630.4379891393704 877.0914865977049,414.82851469550934" stroke="black" stroke-width="1" /><polyline fill="none" points="749.1245181750198,383.40569237959227 828.3682558685306,622.1453170453757 872.1696801199093,413.61994460643564 749.1245181750198,383.40569237959227" stroke="black" stroke-width="1" /><polyline fill="none" points="830.0529260320452,614.1251104131087 867.4371738912597,412.4578579823263 752.2371492464438,392.2795161501121 830.0529260320452,614.1251104131087" stroke="black" stroke-width="1" /><polyline fill="none" points="863.0064037126128,411.6817679118565 755.2300637381976,400.8120390063812 831.3203674812977,606.3388280092144 863.0064037126128,411.6817679118565" stroke="black" stroke-width="1" /><polyline fill="none" points="758.1566138821629,408.7169155064902 832.5390611825021,598.8520180054697 858.9737194883647,411.5677351270347 758.1566138821629,408.7169155064902" stroke="black" stroke-width="1" /><polyline fill="none" points="833.5557788096506,591.6487763562991 855.0961385035108,411.45808821855223 761.0565817639894,415.75275630840594 833.5557788096506,591.6487763562991" stroke="black" stroke-width="1" /><polyline fill="none" points="851.4792324750676,411.6232677604697 763.8450124195917,422.5179878487095 834.2451424121667,584.7247183333826 851.4792324750676,411.6232677604697" stroke="black" stroke-width="1" /><polyline fill="none" points="766.5527097269984,428.75670825196613 834.9079920299706,578.0669702344244 848.212827753988,412.28224624091183 766.5527097269984,428.75670825196613" stroke="black" stroke-width="1" /><polyline fill="none" points="835.4197164808944,571.6906346962123 845.0720539837191,412.91587939518314 769.2014407559943,434.25416696136017 835.4197164808944,571.6906346962123" stroke="black" stroke-width="1" /><polyline fill="none" points="842.1539534749605,413.736582763113 771.7482975146443,439.54018495116213 835.6787255960508,565.6154788526316 842.1539534749605,413.736582763113" stroke="black" stroke-width="1" /><polyline fill="none" points="774.2071601331598,444.38923471660326 835.9277728221626,559.7739828491885 839.5406152695066,414.9155309151703 774.2071601331598,444.38923471660326" stroke="black" stroke-width="1" /><polyline fill="none" points="836.0667283009067,554.2025039286493 837.0277900719548,416.0491349075331 776.5863742934578,448.61282199398966 836.0667283009067,554.2025039286493" stroke="black" stroke-width="1" /><polyline fill="none" points="834.7031202343203,417.3015844108583 778.8740802168212,452.6739636068612 836.0142818368072,548.9370839471958 834.7031202343203,417.3015844108583" stroke="black" stroke-width="1" /><polyline fill="none" points="781.0717802791283,456.3763913122587 835.9638525444038,543.8741801188751 832.6403763898899,418.80446159937367 781.0717802791283,456.3763913122587" stroke="black" stroke-width="1" /><polyline fill="none" points="835.8360265384609,539.0638063296634 830.6569688471683,420.2495358191 783.1780974429488,459.55667650523577 835.8360265384609,539.0638063296634" stroke="black" stroke-width="1" /><polyline fill="none" points="828.8308584085444,421.7613489224129 785.2034024081609,462.6146430369445 835.5665969950027,534.5521733524615 828.8308584085444,421.7613489224129" stroke="black" stroke-width="1" /><polyline fill="none" points="787.1404483538086,465.38147112600285 835.3075301262927,530.2140647205366 827.2273810987467,423.43904593024325 787.1404483538086,465.38147112600285" stroke="black" stroke-width="1" /><polyline fill="none" points="834.9967551636947,526.1073332286022 825.685575993172,425.0522161300801 788.9810755388041,467.717081206872 834.9967551636947,526.1073332286022" stroke="black" stroke-width="1" /><polyline fill="none" points="824.2738644372348,426.6931724791875 790.7509093705307,469.9628601307847 834.5843362896001,522.283711661317 824.2738644372348,426.6931724791875" stroke="black" stroke-width="1" /><polyline fill="none" points="792.4368104058796,471.9752005742667 834.1877796798937,518.6071524620044 823.0493623591058,428.43478894438283 792.4368104058796,471.9752005742667" stroke="black" stroke-width="1" /><polyline fill="none" points="833.7593790137095,515.1389846344035 821.8719565147509,430.1094201609168 794.0261399677191,473.63534611504116 833.7593790137095,515.1389846344035" stroke="black" stroke-width="1" /><polyline fill="none" points="820.8009635706342,431.7834942360754 795.554341469488,475.23163990424734 833.260978419745,511.9330042344678 820.8009635706342,431.7834942360754" stroke="black" stroke-width="1" /><polyline fill="none" points="797.0045967368055,476.643230840025 832.7817470793946,508.85033077299113 819.88571869241,433.5088687208427 797.0045967368055,476.643230840025" stroke="black" stroke-width="1" /><polyline fill="none" points="832.2857459875875,505.9525822325239 819.0056755402715,435.16788264850356 798.3615640156818,477.77051358589034 832.2857459875875,505.9525822325239" stroke="black" stroke-width="1" /><polyline fill="none" points="818.2116712508641,436.8064453768646 799.6663402453704,478.85443930306855 831.7444354207904,503.2931154303832 818.2116712508641,436.8064453768646" stroke="black" stroke-width="1" /><polyline fill="none" points="800.9001131367327,479.7943883848883 831.2239444911778,500.73593581294017 817.5458420926283,438.45982780025014 800.9001131367327,479.7943883848883" stroke="black" stroke-width="1" /><polyline fill="none" points="830.6978636296951,498.34070088937517 816.9056217481708,440.049618591967 802.046180463385,480.5077080965993 830.6978636296951,498.34070088937517" stroke="black" stroke-width="1" /><polyline fill="none" points="816.334104775679,441.60569895752974 803.1481682774738,481.19359243478294 830.1454113660791,496.15858543045806 816.334104775679,441.60569895752974" stroke="black" stroke-width="1" /><polyline fill="none" points="804.1865237808817,481.7691690884627 829.6142072664484,494.06039748919164 815.8668901220329,443.1504478087195 804.1865237808817,481.7691690884627" stroke="black" stroke-width="1" /><polyline fill="none" points="829.0854642993554,492.1023225014811 815.4176452627579,444.63578324255576 805.1441753392845,482.1665980658865 829.0854642993554,492.1023225014811" stroke="black" stroke-width="1" /><polyline fill="none" points="815.0225118041627,446.07927612037616 806.0649941454411,482.5487413134093 828.5445815110787,490.3322053329771 815.0225118041627,446.07927612037616" stroke="black" stroke-width="1" /><polyline fill="none" points="806.9295936595041,482.8481053141619 828.0245019069665,488.63016959403086 814.7112457216758,447.49346185859866 806.9295936595041,482.8481053141619" stroke="black" stroke-width="1" /><polyline fill="none" points="827.5124535921476,487.04798852728345 814.4119514115922,448.85325583765876 807.7212421184519,483.0096392838973 827.5124535921476,487.04798852728345" stroke="black" stroke-width="1" /><polyline fill="none" points="814.1546164387792,450.1669628932833 808.4824425597478,483.16496040864286 826.9986906247103,485.62948754136033 814.1546164387792,450.1669628932833" stroke="black" stroke-width="1" /><polyline fill="none" points="809.1946059468618,483.2597499137473 826.5046877714052,484.26554428566504 813.9638468044747,451.4397623940704 809.1946059468618,483.2597499137473" stroke="black" stroke-width="1" /><polyline fill="none" points="826.0223477342156,483.0030142129114 813.7804144637972,452.66360806790414 809.8418267848368,483.24987546371517 826.0223477342156,483.0030142129114" stroke="black" stroke-width="1" /><polyline fill="none" points="813.6289303222987,453.84000296774303 810.4641545136591,483.24038080022274 825.5456778337572,481.88135993425107 813.6289303222987,453.84000296774303" stroke="black" stroke-width="1" /><polyline fill="none" points="811.0442131028935,483.1881107669161 825.0873413910087,480.80284620477 813.5295181215524,454.9687763446343 811.0442131028935,483.1881107669161" stroke="black" stroke-width="1" /><polyline fill="none" points="824.6428097267989,479.80922813322627 813.4339294669886,456.0541353608759 811.5672360499668,483.05815374254337 824.6428097267989,479.80922813322627" stroke="black" stroke-width="1" /><polyline fill="none" points="813.3621335663339,457.09275145247847 812.070142729845,482.9331950652619 824.208937566781,478.935517491659 813.3621335663339,457.09275145247847" stroke="black" stroke-width="1" /><polyline fill="none" points="812.5370194543425,482.77943823550794 823.791752797533,478.0954111055367 813.3303984081804,458.0807009441334 812.5370194543425,482.77943823550794" stroke="black" stroke-width="1" /><polyline fill="none" points="823.3893930133271,477.3256145608673 813.2998838330327,459.030652378417 812.9544184373804,482.5696757864833 823.3893930133271,477.3256145608673" stroke="black" stroke-width="1" /><polyline fill="none" points="813.2865967024306,459.9359994325734 813.3557636133783,482.36798112395957 823.0008239244464,476.65678320977906 813.2865967024306,459.9359994325734" stroke="black" stroke-width="1" /><polyline fill="none" points="813.7267274714962,482.14831966572183 822.6271998005227,476.013676141425 813.3035248089332,460.7903194415406 813.7267274714962,482.14831966572183" stroke="black" stroke-width="1" /><polyline fill="none" points="822.2685969162308,475.4281624221986 813.3198018344164,461.61178098862445 814.0552609116784,481.88985207943244 822.2685969162308,475.4281624221986" stroke="black" stroke-width="1" /><polyline fill="none" points="813.3480887220034,462.39170679980936 814.371158450315,481.6413255541542 821.925500447222,474.92676028287593 813.3480887220034,462.39170679980936" stroke="black" stroke-width="1" /><polyline fill="none" points="814.6617100655806,481.38307304372046 821.5955999962521,474.4446428412195 813.3986126198332,463.1221439630367 814.6617100655806,481.38307304372046" stroke="black" stroke-width="1" /><polyline fill="none" points="821.2803312510051,474.0091621151355 813.4471932908235,463.8244873892168 814.9162724188661,481.0994610849287 821.2803312510051,474.0091621151355" stroke="black" stroke-width="1" /><polyline fill="none" points="813.5036963342097,464.4889094544365 815.1610439124099,480.82675727839813 820.9812299080514,473.64299855126245 813.5036963342097,464.4889094544365" stroke="black" stroke-width="1" /><polyline fill="none" points="815.3848972199346,480.550458865816 820.6936324629036,473.2909182013845 813.5760502144299,465.1066613548742 815.3848972199346,480.550458865816" stroke="black" stroke-width="1" /><polyline fill="none" points="820.4198792995007,472.9761390919033 813.6456212531031,465.7006535668334 815.578550376841,480.2591388745117 820.4198792995007,472.9761390919033" stroke="black" stroke-width="1" /><polyline fill="none" points="813.7199646809391,466.2605953094364 815.7647553354049,479.9790234982575 820.1621902757099,472.71784894642377 813.7199646809391,466.2605953094364" stroke="black" stroke-width="1" /><polyline fill="none" points="815.9338874484935,479.6997475539562 819.9144123682187,472.4694930373089 813.8051155566143,466.77748578037944 815.9338874484935,479.6997475539562" stroke="black" stroke-width="1" /><polyline fill="none" points="819.6794394139262,472.25056968127313 813.8869913986097,467.27449584859386 816.0779471394716,479.4132407126991 819.6794394139262,472.25056968127313" stroke="black" stroke-width="1" /><polyline fill="none" points="813.9712589271043,467.74137065105947 816.2164660731044,479.13775336533655 819.4598940105869,472.0771389493418 813.9712589271043,467.74137065105947" stroke="black" stroke-width="1" /><polyline fill="none" points="816.341213301469,478.8661912724137 819.2487926612223,471.9103786301771 814.062411018426,468.16924836726537 816.341213301469,478.8661912724137" stroke="black" stroke-width="1" /><polyline fill="none" points="819.0493164441916,471.76648900468047 814.1500572600816,468.5806692482326 816.4453711146506,478.59312580057775 819.0493164441916,471.76648900468047" stroke="black" stroke-width="1" /><polyline fill="none" points="700.0,810.9570399999999 1050.0,608.21778 1400,1216.43556 700.0,810.9570399999999" stroke="black" stroke-width="1" /><polyline fill="none" points="1063.4615384615383,631.6107715384614 1373.076923076923,1200.840232307692 713.9792899408284,804.059106597633 1063.4615384615383,631.6107715384614" stroke="black" stroke-width="1" /><polyline fill="none" points="1347.72701411015,1185.579419780382 727.4209148839326,797.4264783261264 1074.3948259864849,652.9172580093045 1347.72701411015,1185.579419780382" stroke="black" stroke-width="1" /><polyline fill="none" points="740.7660653109539,791.868431390864 1084.9076024527797,673.404264231269 1324.382362233258,1170.436689457708 740.7660653109539,791.868431390864" stroke="black" stroke-width="1" /><polyline fill="none" points="1094.118170136644,692.5208959707475 1301.9355815824001,1155.8763718397524 754.3565308811727,788.047372336244 1094.118170136644,692.5208959707475" stroke="black" stroke-width="1" /><polyline fill="none" points="1280.874848863122,1141.729102628079 767.4242862371524,784.3732770914172 1101.3011193184316,709.7981346883371 1280.874848863122,1141.729102628079" stroke="black" stroke-width="1" /><polyline fill="none" points="780.2657028941247,781.5050023836063 1108.2078012239965,726.410864224481 1261.6206509412375,1127.8743295417532 780.2657028941247,781.5050023836063" stroke="black" stroke-width="1" /><polyline fill="none" points="1114.1082954438905,741.8517667366838 1243.1069990932717,1114.552432343363 793.1058026075772,779.9798779356478 1114.1082954438905,741.8517667366838" stroke="black" stroke-width="1" /><polyline fill="none" points="1225.799260766899,1101.6842571738355 805.4520523320507,778.513412120303 1118.4041018024677,755.6914779073434 1225.799260766899,1101.6842571738355" stroke="black" stroke-width="1" /><polyline fill="none" points="817.4886696193745,777.6356454198044 1122.5346848395611,768.9988924945161 1210.095007261225,1089.2208490294497 817.4886696193745,777.6356454198044" stroke="black" stroke-width="1" /><polyline fill="none" points="1125.9023895480866,781.3151215920136 1194.9947635057692,1077.2368027367709 829.3507357704788,777.7771637341201 1125.9023895480866,781.3151215920136" stroke="black" stroke-width="1" /><polyline fill="none" points="1180.9315316697966,1065.719124313592 840.756568608079,777.9132390363467 1128.018895014306,792.2537370813051 1180.9315316697966,1065.719124313592" stroke="black" stroke-width="1" /><polyline fill="none" points="851.8051196237031,778.4647966534604 1130.0539964241325,802.7716365902392 1168.2728235141776,1054.6708809420484 851.8051196237031,778.4647966534604" stroke="black" stroke-width="1" /><polyline fill="none" points="1131.5239513122112,812.4600690653087 1156.1009887491593,1044.0475700078719 862.5635362271073,779.7723071308392 1131.5239513122112,812.4600690653087" stroke="black" stroke-width="1" /><polyline fill="none" points="1144.8110867290802,1033.8831368202937 872.9081675765344,781.0295287437034 1132.0349949820907,820.9763409020389 1144.8110867290802,1033.8831368202937" stroke="black" stroke-width="1" /><polyline fill="none" points="882.8745840152096,782.565944595947 1132.5263831262055,829.1650638219718 1134.7366058554699,1024.217090965511 882.8745840152096,782.565944595947" stroke="black" stroke-width="1" /><polyline fill="none" points="1132.6113916927156,836.667064865954 1125.04960501546,1014.922816105143 892.4798458489598,784.6467569140242 1132.6113916927156,836.667064865954" stroke="black" stroke-width="1" /><polyline fill="none" points="1116.1046142782868,1006.0660445977924 901.715674535258,786.6475379890984 1131.9765156383146,843.1824102402554 1116.1046142782868,1006.0660445977924" stroke="black" stroke-width="1" /><polyline fill="none" points="910.5718607315293,788.8219561526043 1131.366057893698,849.447165407853 1108.1995083726422,997.7105027345159 910.5718607315293,788.8219561526043" stroke="black" stroke-width="1" /><polyline fill="none" points="1130.4750367582728,855.1496014588785 1100.59844500183,989.6763278659807 919.0296751940964,791.3730194336149 1130.4750367582728,855.1496014588785" stroke="black" stroke-width="1" /><polyline fill="none" points="1093.6150307784558,982.049277541659 927.1621891004108,793.825964896125 1129.0573442205875,860.0303582312931 1093.6150307784558,982.049277541659" stroke="black" stroke-width="1" /><polyline fill="none" points="934.9273873742637,796.3722877167083 1127.694178318967,864.7233935893842 1087.5116598782945,974.9078548560839 934.9273873742637,796.3722877167083" stroke="black" stroke-width="1" /><polyline fill="none" points="1126.1486968404795,868.9612574842572 1081.6430340127547,968.0411022738001 942.2820531229643,799.1641711693064 1126.1486968404795,868.9612574842572" stroke="black" stroke-width="1" /><polyline fill="none" points="1076.2829962862243,961.545835692858 949.3538471120994,801.8486744891122 1124.2307852807005,872.5222027999725 1076.2829962862243,961.545835692858" stroke="black" stroke-width="1" /><polyline fill="none" points="956.0798831955071,804.566887116453 1122.3866395501439,875.946188680468 1071.659799628889,955.5081838245347 956.0798831955071,804.566887116453" stroke="black" stroke-width="1" /><polyline fill="none" points="1120.4356072454802,879.0062654167782 1067.2144182276052,949.7027493357624 962.4012571974291,807.4299401280039 1120.4356072454802,879.0062654167782" stroke="black" stroke-width="1" /><polyline fill="none" points="1063.1831428033674,944.230718212387 968.4795014300464,810.1828757160335 1118.233589382322,881.5148982166093 1063.1831428033674,944.230718212387" stroke="black" stroke-width="1" /><polyline fill="none" points="974.2392740435954,812.9264150429786 1116.1162645139004,883.9270451395238 1059.7622247741454,939.1805527058713 974.2392740435954,812.9264150429786" stroke="black" stroke-width="1" /><polyline fill="none" points="1113.9488014469869,886.0521800459218 1056.472880515278,934.3246243342214 979.6127174052642,815.7389444661687 1113.9488014469869,886.0521800459218" stroke="black" stroke-width="1" /><polyline fill="none" points="1053.5167203956619,929.7636366469885 984.7794898684074,818.4432996807747 1111.6244906373206,887.7333899151935 1053.5167203956619,929.7636366469885" stroke="black" stroke-width="1" /><polyline fill="none" points="989.6581437441347,821.1083031513291 1109.3895763972569,889.3499378664163 1051.06062129368,925.5845853586939 989.6581437441347,821.1083031513291" stroke="black" stroke-width="1" /><polyline fill="none" points="1107.1461550471192,890.7435781545809 1048.6989875417744,921.5662668122567 994.176913409634,823.7865829591465 1107.1461550471192,890.7435781545809" stroke="black" stroke-width="1" /><polyline fill="none" points="1046.601984690538,917.8055097409832 998.521884241845,826.3618520051247 1104.8175331103278,891.7844216771348 1046.601984690538,917.8055097409832" stroke="black" stroke-width="1" /><polyline fill="none" points="1002.6101784290944,828.8781046848173 1102.5784735557204,892.7852327565136 1044.9099921420209,914.3852249311307 1002.6101784290944,828.8781046848173" stroke="black" stroke-width="1" /><polyline fill="none" points="1100.3604550398088,893.6160016863064 1043.283076229985,911.0964895370417 1006.3698044525834,831.3680238002592 1100.3604550398088,893.6160016863064" stroke="black" stroke-width="1" /><polyline fill="none" points="1041.8633350077773,908.030010085627 1009.984829475169,833.7621767958763 1098.1105658078075,894.1703866247418 1041.8633350077773,908.030010085627" stroke="black" stroke-width="1" /><polyline fill="none" points="1013.3742808725781,836.0855694816019 1095.947210777037,894.7034490655451 1040.7676021564234,905.2629162162415 1013.3742808725781,836.0855694816019" stroke="black" stroke-width="1" /><polyline fill="none" points="1093.8249181377826,895.109582417495 1039.7140128762755,902.60224903414 1016.468536152009,838.35572382529 1093.8249181377826,895.109582417495" stroke="black" stroke-width="1" /><polyline fill="none" points="1038.8199560791882,900.1312288337996 1019.4437816130003,840.5385645403749 1091.7093426739902,895.3027226642758 1038.8199560791882,900.1312288337996" stroke="black" stroke-width="1" /><polyline fill="none" points="1022.2232262691921,842.644878314371 1089.6751354972669,895.4884344400267 1038.1816203172652,897.9202153522831 1022.2232262691921,842.644878314371" stroke="black" stroke-width="1" /><polyline fill="none" points="1087.6946156826514,895.5819644751135 1037.5678359308008,895.794240850825 1024.7413566312482,844.6809200897841 1087.6946156826514,895.5819644751135" stroke="black" stroke-width="1" /><polyline fill="none" points="1037.074509803895,893.8283438984772 1027.162635825533,846.6386525661428 1085.7476885334684,895.5145175298583 1037.074509803895,893.8283438984772" stroke="black" stroke-width="1" /><polyline fill="none" points="1029.4159070835306,848.5184935262857 1083.8756431977154,895.449664697882 1036.7799481608038,892.0856573457006 1029.4159070835306,848.5184935262857" stroke="black" stroke-width="1" /><polyline fill="none" points="1082.0642703116803,895.3202797997211 1036.4967158116779,890.4099971987999 1031.440844130767,850.3185622291102 1082.0642703116803,895.3202797997211" stroke="black" stroke-width="1" /><polyline fill="none" points="1036.3022592085658,888.8680189307349 1033.3878989838788,852.0493975202875 1080.3041929615604,895.0721159201446 1036.3022592085658,888.8680189307349" stroke="black" stroke-width="1" /><polyline fill="none" points="1035.1923718291744,853.7041174587434 1078.6118108941375,894.8334968051672 1036.2595712324353,887.5155611818122 1035.1923718291744,853.7041174587434" stroke="black" stroke-width="1" /><polyline fill="none" points="1076.9828785994566,894.5520377427305 1036.2185251015405,886.2151210386173 1036.7996990126467,855.2751913158198 1076.9828785994566,894.5520377427305" stroke="black" stroke-width="1" /><polyline fill="none" points="1036.2408779442753,885.0251237415866 1038.3452059198316,856.7858392553163 1075.4158785742575,894.1856179734557 1036.2408779442753,885.0251237415866" stroke="black" stroke-width="1" /><polyline fill="none" points="1039.7710010219248,858.2242922829371 1073.9091477807967,893.83329127223 1036.3766519088003,883.9943225316385 1039.7710010219248,858.2242922829371" stroke="black" stroke-width="1" /><polyline fill="none" points="1072.4655902472584,893.4548693975918 1036.5072037977668,883.0031675220731 1041.0284852228992,859.5793144796546 1072.4655902472584,893.4548693975918" stroke="black" stroke-width="1" /><polyline fill="none" points="1036.681099237195,882.1022500973647 1042.237604646913,860.8822204380368 1071.0892636699482,893.0182301937368 1036.681099237195,882.1022500973647" stroke="black" stroke-width="1" /><polyline fill="none" points="1043.3472838401067,862.118220813256 1069.7658727302269,892.5983848054148 1036.9374909526916,881.3336335864374 1043.3472838401067,862.118220813256" stroke="black" stroke-width="1" /><polyline fill="none" points="1068.5032426618602,892.1651251431463 1037.1840214483616,880.5945792490072 1044.3148207178663,863.2738709797902 1068.5032426618602,892.1651251431463" stroke="black" stroke-width="1" /><polyline fill="none" points="1037.458282958727,879.9283981617297 1045.245144638789,864.3850730629962 1067.3092057502013,891.6944817977071 1037.458282958727,879.9283981617297" stroke="black" stroke-width="1" /><polyline fill="none" points="1046.0937623738432,865.4354349374081 1066.1610933351444,891.2419401194003 1037.7904167823854,879.3709764992557 1046.0937623738432,865.4354349374081" stroke="black" stroke-width="1" /><polyline fill="none" points="1065.0699134677304,890.7853645955485 1038.1097762282106,878.8349941314923 1046.8236143389927,866.410432231952 1065.0699134677304,890.7853645955485" stroke="black" stroke-width="1" /><polyline fill="none" points="1038.444923847856,878.3571263661254 1047.5253950747135,867.3479296305518 1064.0458754054275,890.3073554328784 1038.444923847856,878.3571263661254" stroke="black" stroke-width="1" /><polyline fill="none" points="1048.1607981643565,868.2309844691027 1063.061223422444,889.8477312380032 1038.8186113215675,877.967659370086 1048.1607981643565,868.2309844691027" stroke="black" stroke-width="1" /><polyline fill="none" points="1062.128815264718,889.3908053969294 1039.1779262001362,877.5931718738943 1048.6980295912936,869.0448237355575 1062.128815264718,889.3908053969294" stroke="black" stroke-width="1" /><polyline fill="none" points="1039.544084022873,877.264389253189 1049.2145982710406,869.8273614917641 1061.2601717554162,888.9244047760163 1039.544084022873,877.264389253189" stroke="black" stroke-width="1" /><polyline fill="none" points="1049.6778895589011,870.561863156543 1060.4249376118569,888.475942640523 1039.9338457742585,877.0065997879335 1049.6778895589011,870.561863156543" stroke="black" stroke-width="1" /><polyline fill="none" points="1059.6368186950262,888.0348140692696 1040.3086166890523,876.7587253021109 1050.060925294906,871.2338997301094 1059.6368186950262,888.0348140692696" stroke="black" stroke-width="1" /><polyline fill="none" points="1040.683705481585,876.54623201088 1050.4292288872182,871.880088743154 1058.9078528022017,887.5929455285623 1040.683705481585,876.54623201088" stroke="black" stroke-width="1" /><polyline fill="none" points="1050.7553298070252,872.4844293887465 1058.206924059101,887.1680719317284 1041.0710756479482,876.3900088331055 1050.7553298070252,872.4844293887465" stroke="black" stroke-width="1" /><polyline fill="none" points="1057.5478529663644,886.7535310433198 1041.4435469617588,876.2397942390917 1051.016580697769,873.0332409908455 1057.5478529663644,886.7535310433198" stroke="black" stroke-width="1" /><polyline fill="none" points="1041.8117405669898,876.1164652680052 1051.2677834773303,873.5609444544021 1056.9426178740807,886.3444131288846 1041.8117405669898,876.1164652680052" stroke="black" stroke-width="1" /><polyline fill="none" points="1051.4860463387438,874.0526163264976 1056.3606610545771,885.9510305188508 1042.1838292505188,876.0370864625626 1051.4860463387438,874.0526163264976" stroke="black" stroke-width="1" /><polyline fill="none" points="1055.8153982928825,885.5697249782243 1042.541606830835,875.9607606880985 1051.6525598754415,874.4955820438718 1055.8153982928825,885.5697249782243" stroke="black" stroke-width="1" /><polyline fill="none" points="1042.8920281017813,875.9044076633205 1051.8126690453432,874.92151061827 1055.3183455932249,885.1979820045741 1042.8920281017813,875.9044076633205" stroke="black" stroke-width="1" /><polyline fill="none" points="1051.9475027587232,875.3167595177431 1054.8404103050925,884.8405368376028 1043.2403155885868,875.8818058115675 1051.9475027587232,875.3167595177431" stroke="black" stroke-width="1" /><polyline fill="none" points="1054.3942528159962,884.4959702596784 1043.5752074028228,875.8600732618049 1052.0416085301567,875.6698060847406 1054.3942528159962,884.4959702596784" stroke="black" stroke-width="1" /><polyline fill="none" points="1043.9008382154125,875.8527552934563 1052.1320948488428,876.0092739376228 1053.9906599467429,884.1635389148237 1043.9008382154125,875.8527552934563" stroke="black" stroke-width="1" /><polyline fill="none" points="1052.203578121839,876.3228995136689 1053.6025898801531,883.8438933909249 1044.2201743656597,875.8708377634645 1052.203578121839,876.3228995136689" stroke="black" stroke-width="1" /><polyline fill="none" points="1053.2417277449802,883.5372374052532 1044.527228356282,875.888224753857 1052.2435069534981,876.6003740479605 1053.2417277449802,883.5372374052532" stroke="black" stroke-width="1" /><polyline fill="none" points="1044.8240083023288,875.9156151113225 1052.2819000608627,876.8671764847794 1052.9179693048782,883.2440980862558 1044.8240083023288,875.9156151113225" stroke="black" stroke-width="1" /><polyline fill="none" points="1052.3063642625555,877.1124427002209 1052.6066631124725,882.9622333564506 1045.111791223876,875.9616469416648 1052.3063642625555,877.1124427002209" stroke="black" stroke-width="1" /><polyline fill="none" points="700,1216.43556 0,1216.43556 700.0,810.9570399999999 700,1216.43556" stroke="black" stroke-width="1" /><polyline fill="none" points="26.923076923076923,1200.840232307692 700.0,826.5523676923075 674.112426035503,1215.8357397041418 26.923076923076923,1200.840232307692" stroke="black" stroke-width="1" /><polyline fill="none" points="699.0043240782886,841.524805077378 649.2205279927173,1215.2589894196628 52.77235565981583,1187.020408183449 699.0043240782886,841.524805077378" stroke="black" stroke-width="1" /><polyline fill="none" points="626.280213672221,1214.172890141347 77.62743136821862,1173.7321157562924 696.2072429088245,855.8574237336845 626.280213672221,1214.172890141347" stroke="black" stroke-width="1" /><polyline fill="none" points="101.41896258131885,1161.5061660631152 693.5177417843397,869.638787826287 606.093242476417,1212.1472469075688 101.41896258131885,1161.5061660631152" stroke="black" stroke-width="1" /><polyline fill="none" points="690.1552610417273,882.8121900986439 586.6826932496825,1210.199513028936 124.06266636825762,1150.7871669875585 690.1552610417273,882.8121900986439" stroke="black" stroke-width="1" /><polyline fill="none" points="568.8896152927047,1207.9144227965755 145.83545847108337,1140.4804371072157 685.4911977436878,895.3161221254874 568.8896152927047,1207.9144227965755" stroke="black" stroke-width="1" /><polyline fill="none" points="166.5914484431066,1131.0510403771493 681.0065214955731,907.33913368976 553.4166088754124,1204.9581388573667 166.5914484431066,1131.0510403771493" stroke="black" stroke-width="1" /><polyline fill="none" points="676.0992171640285,918.7860185038987 538.5387180895544,1202.1155581465891 186.18790108621897,1122.887001074332 676.0992171640285,918.7860185038987" stroke="black" stroke-width="1" /><polyline fill="none" points="524.9867635894261,1199.0683059515022 205.03064401228855,1115.0369632831614 670.2871997188514,929.5661064826527 524.9867635894261,1199.0683059515022" stroke="black" stroke-width="1" /><polyline fill="none" points="222.92512692407942,1107.903468790834 664.6987214061811,939.931575692993 513.3690083330666,1195.5619660607074 222.92512692407942,1107.903468790834" stroke="black" stroke-width="1" /><polyline fill="none" points="658.8783478264459,949.7635137840589 502.1980898173363,1192.1904853964816 239.69255849724735,1101.8211628290348 658.8783478264459,949.7635137840589" stroke="black" stroke-width="1" /><polyline fill="none" points="492.1017232281021,1188.7147422208106 255.81508885606266,1095.9727917119203 652.4638622649711,958.9539456470109 492.1017232281021,1188.7147422208106" stroke="black" stroke-width="1" /><polyline fill="none" points="271.07081091025145,1090.7028360940392 646.29608768663,967.7908993613877 483.60053429280015,1184.9450535236272 271.07081091025145,1090.7028360940392" stroke="black" stroke-width="1" /><polyline fill="none" points="640.0385664022518,976.1429822137816 475.4263141627021,1181.3203528532583 285.26187842917454,1086.2966878678753 640.0385664022518,976.1429822137816" stroke="black" stroke-width="1" /><polyline fill="none" points="468.1122974037203,1177.6655965076668 298.9071356589083,1082.0600068811793 633.426017594616,983.8938519943156 468.1122974037203,1177.6655965076668" stroke="black" stroke-width="1" /><polyline fill="none" points="311.77324650258936,1078.284385539377 627.0677975872738,991.3466113986751 462.099256984446,1173.8432422396556 311.77324650258936,1078.284385539377" stroke="black" stroke-width="1" /><polyline fill="none" points="620.7228537179342,998.3657125848666 456.31748735052844,1170.1679015973373 323.65592370317955,1075.2105904257419 620.7228537179342,998.3657125848666" stroke="black" stroke-width="1" /><polyline fill="none" points="451.2151195179381,1166.5156973215067 335.0815748575932,1072.2550182010928 614.2033254794727,1004.8330196901221 451.2151195179381,1166.5156973215067" stroke="black" stroke-width="1" /><polyline fill="none" points="345.8170268045885,1069.6618644122093 607.934548327106,1011.0515842144061 447.16134672127083,1162.7905499019182 345.8170268045885,1069.6618644122093" stroke="black" stroke-width="1" /><polyline fill="none" points="601.7509636499584,1016.8876982793104 443.2634882629369,1159.2086773830833 355.66063976017966,1067.6320887917132 601.7509636499584,1016.8876982793104" stroke="black" stroke-width="1" /><polyline fill="none" points="439.89414793590777,1155.6865008988 365.12565221747883,1065.680381464313 595.5257015071103,1022.2261137646752 439.89414793590777,1155.6865008988" stroke="black" stroke-width="1" /><polyline fill="none" points="373.98719257477234,1064.0090634758653 589.5398725236025,1027.3592055775262 437.3592650374025,1152.1604456133025 373.98719257477234,1064.0090634758653" stroke="black" stroke-width="1" /><polyline fill="none" points="583.6867722356718,1032.15925327121 434.9218776349936,1148.7700078387857 382.0525610232684,1062.7840707756861 583.6867722356718,1032.15925327121" stroke="black" stroke-width="1" /><polyline fill="none" points="432.88844238069646,1145.462856413282 389.8077229929762,1061.60619317936 577.8868364720189,1036.5170841612896 432.88844238069646,1145.462856413282" stroke="black" stroke-width="1" /><polyline fill="none" points="397.04153504986243,1060.6412274478957 572.3099751608141,1040.7073061709816 431.5097151756644,1142.2004860684594 397.04153504986243,1060.6412274478957" stroke="black" stroke-width="1" /><polyline fill="none" points="566.8945805460007,1044.6108900131921 430.1840159400566,1139.06359150613 403.5743444920216,1060.0246760080995 566.8945805460007,1044.6108900131921" stroke="black" stroke-width="1" /><polyline fill="none" points="429.1605670382091,1136.0236332177442 409.85589203255927,1059.4318380852185 561.5971184880087,1048.126764751829 429.1605670382091,1136.0236332177442" stroke="black" stroke-width="1" /><polyline fill="none" points="415.6920930500765,1058.9970275723958 556.5034049707087,1051.5074135389796 428.6425488078963,1133.0610714621537 415.6920930500765,1058.9970275723958" stroke="black" stroke-width="1" /><polyline fill="none" points="551.5856797336776,1054.6440926898708 428.1444543556724,1130.2124543894706 420.9187694609842,1058.829606999991 551.5856797336776,1054.6440926898708" stroke="black" stroke-width="1" /><polyline fill="none" points="427.8665433981844,1127.466960259106 425.9444198560878,1058.668625680371 546.8272514130816,1057.4449722117645 427.8665433981844,1127.466960259106" stroke="black" stroke-width="1" /><polyline fill="none" points="430.5937595313568,1058.6215620854246 542.2518395663548,1060.1381255982008 427.9714363263833,1124.819060329349 430.5937595313568,1058.6215620854246" stroke="black" stroke-width="1" /><polyline fill="none" points="537.8564394417405,1062.625853857091 428.07229491118994,1122.2730027045827 434.7192472202177,1058.7755733074118 537.8564394417405,1062.625853857091" stroke="black" stroke-width="1" /><polyline fill="none" points="428.3279469230756,1119.8307938816147 438.6860623056609,1058.9236610208611 533.6438051140996,1064.8260438580342 428.3279469230756,1119.8307938816147" stroke="black" stroke-width="1" /><polyline fill="none" points="442.3382831829086,1059.1506757453676 529.5931951836756,1066.9416111666333 428.8668060099923,1117.4969431840666 442.3382831829086,1059.1506757453676" stroke="black" stroke-width="1" /><polyline fill="none" points="525.71910329238,1068.8860470134575 429.38493974741215,1115.2528559748857 445.5452378025036,1059.5251131018324 525.71910329238,1068.8860470134575" stroke="black" stroke-width="1" /><polyline fill="none" points="430.006489672608,1113.109481248999 448.62884801365266,1059.8851490215102 522.0378489223888,1070.5869483302092 430.006489672608,1113.109481248999" stroke="black" stroke-width="1" /><polyline fill="none" points="451.4522711255271,1060.2967566872294 518.4981812589356,1072.2224303655473 430.83132742079715,1111.0782226120077 451.4522711255271,1060.2967566872294" stroke="black" stroke-width="1" /><polyline fill="none" points="515.1263791882379,1073.7168839134881 431.6244406402098,1109.1250893072086 453.9012752817852,1060.8129154267008 515.1263791882379,1073.7168839134881" stroke="black" stroke-width="1" /><polyline fill="none" points="432.48124197257806,1107.266928773343 456.25608697049495,1061.3092219069617 511.9477200645587,1075.0072702542518 432.48124197257806,1107.266928773343" stroke="black" stroke-width="1" /><polyline fill="none" points="458.39807285872814,1061.836069920319 508.89131706102097,1076.24802635114 433.4780431605069,1105.5195880482265 458.39807285872814,1061.836069920319" stroke="black" stroke-width="1" /><polyline fill="none" points="505.99080652638577,1077.3738556471817 434.4365058412077,1103.8394527356147 460.2285626151765,1062.4336770636598 505.99080652638577,1077.3738556471817" stroke="black" stroke-width="1" /><polyline fill="none" points="435.4285080248219,1102.246922902078 461.98864891945374,1063.0082993168721 503.2768719686333,1078.3305120800624 435.4285080248219,1102.246922902078" stroke="black" stroke-width="1" /><polyline fill="none" points="463.57665749826833,1063.5976151923794 500.667319509256,1079.2503740347552 436.511129158416,1100.7604110670895 463.57665749826833,1063.5976151923794" stroke="black" stroke-width="1" /><polyline fill="none" points="498.19977372653136,1080.0776831513833 437.5521110176411,1099.331072764216 464.90831581474,1064.2314639600334 498.19977372653136,1080.0776831513833" stroke="black" stroke-width="1" /><polyline fill="none" points="438.60427274060646,1097.981087810209 466.18875650365504,1064.8409339289312 495.9076390732266,1080.7662756382613 438.60427274060646,1097.981087810209" stroke="black" stroke-width="1" /><polyline fill="none" points="467.3317904486385,1065.4534470715978 493.70366344504896,1081.428383798721 439.7091772678384,1096.7300247048777 467.3317904486385,1065.4534470715978" stroke="black" stroke-width="1" /><polyline fill="none" points="491.62695243823316,1082.0169084489578 440.77158546709995,1095.52707941129 468.2662197559306,1066.0905032784192 491.62695243823316,1082.0169084489578" stroke="black" stroke-width="1" /><polyline fill="none" points="441.8290714012858,1094.3949034061795 469.1647094744807,1066.70305732344 489.71164932142744,1082.4929851780817 441.8290714012858,1094.3949034061795" stroke="black" stroke-width="1" /><polyline fill="none" points="469.9549763916709,1067.3103622409262 487.8700117091143,1082.9507512637776 442.91083697783904,1093.353190284439 469.9549763916709,1067.3103622409262" stroke="black" stroke-width="1" /><polyline fill="none" points="486.1408126809883,1083.3508450722645 443.9509961860633,1092.3515430519963 470.57750855664466,1067.9273038882855 486.1408126809883,1083.3508450722645" stroke="black" stroke-width="1" /><polyline fill="none" points="444.97509281570103,1091.4121492380073 471.1760971768117,1068.5205170107463 484.5575157630926,1083.6608952324852 444.97509281570103,1091.4121492380073" stroke="black" stroke-width="1" /><polyline fill="none" points="471.69076712243793,1069.1028392500439 483.03511488050066,1083.9590203865437 446.0026187505755,1090.5540988538546 471.69076712243793,1069.1028392500439" stroke="black" stroke-width="1" /><polyline fill="none" points="481.61078810627276,1084.2126772506708 446.99062445718556,1089.729050407554 472.07230639104694,1069.6839868654527 481.61078810627276,1084.2126772506708" stroke="black" stroke-width="1" /><polyline fill="none" points="447.9553045315648,1088.9580864251654 472.43917107240173,1070.2427826494995 480.3163464303225,1084.3951929881512 447.9553045315648,1088.9580864251654" stroke="black" stroke-width="1" /><polyline fill="none" points="472.74213935539865,1070.7871061240628 479.07169097267797,1084.5706888895747 448.90864433248146,1088.2592025674305 472.74213935539865,1070.7871061240628" stroke="black" stroke-width="1" /><polyline fill="none" points="477.91157379420883,1084.7125548002614 449.82531721797824,1087.5871988580702 472.94096375689134,1071.3227003039167 477.91157379420883,1084.7125548002614" stroke="black" stroke-width="1" /><polyline fill="none" points="450.71438054639793,1086.961641221372 473.1321410660189,1071.8376947076222 476.86552790006226,1084.7990581241502 450.71438054639793,1086.961641221372" stroke="black" stroke-width="1" /><polyline fill="none" points="473.27573286732826,1072.336208685181 475.85971454030596,1084.88223439712 451.58212486643373,1086.3991245853647 473.27573286732826,1072.336208685181" stroke="black" stroke-width="1" /><polyline fill="none" points="474.92596109131085,1084.9405763274372 452.41649440492967,1085.8582432045882 473.3392031836353,1072.8209920560369 474.92596109131085,1084.9405763274372" stroke="black" stroke-width="1" /><polyline fill="none" points="453.2212139733414,1085.3568104681053 473.4002323339305,1073.287129912629 474.0911631252351,1084.9565853328475 453.2212139733414,1085.3568104681053" stroke="black" stroke-width="1" /><polyline fill="none" points="473.42680659513445,1073.735955121099 473.28847277323916,1084.9719786072806 453.9983521511026,1084.9098544932206 473.42680659513445,1073.735955121099" stroke="black" stroke-width="1" /><polyline fill="none" points="472.54654505700313,1084.969589218278 454.74560039894993,1084.4800891327543 473.39295038212936,1074.1680179709906 472.54654505700313,1084.969589218278" stroke="black" stroke-width="1" /><polyline fill="none" points="455.4628061675337,1084.083471011148 473.3603963311629,1074.5834630189634 471.8894781766389,1084.935507748773 455.4628061675337,1084.083471011148" stroke="black" stroke-width="1" /><polyline fill="none" points="473.3038225559889,1074.9816185854945 471.2576830993656,1084.9027371050183 456.14899910555124,1083.7333997640076 473.3038225559889,1074.9816185854945" stroke="black" stroke-width="1" /><polyline fill="none" points="470.6765798688342,1084.8577625919024 456.80880000749113,1083.3967927956032 473.2027747603291,1075.3614702780485 470.6765798688342,1084.8577625919024" stroke="black" stroke-width="1" /><polyline fill="none" points="457.4393374979849,1083.0877419295434 473.10561341834847,1075.7267122901196 470.1674551622631,1084.7896848741195 457.4393374979849,1083.0877419295434" stroke="black" stroke-width="1" /><polyline fill="none" points="472.9926073315759,1076.075288158735 469.67791217517544,1084.7242255300973 458.03754018389225,1082.8180321691277 472.9926073315759,1076.075288158735" stroke="black" stroke-width="1" /><polyline fill="none" points="469.2302055601261,1084.6509104008292 458.6127350741878,1082.5586958610356 472.84789957113554,1076.405119783431 469.2302055601261,1084.6509104008292" stroke="black" stroke-width="1" /><polyline fill="none" points="459.16024140099347,1082.3220198580507 472.708757493789,1076.7222655764078 468.8428992463133,1084.5613376876452 459.16024140099347,1082.3220198580507" stroke="black" stroke-width="1" /><polyline fill="none" points="472.5600706381168,1077.0237683499167 468.4704893291856,1084.4752100788146 459.67561944857516,1082.1182409538915 472.5600706381168,1077.0237683499167" stroke="black" stroke-width="1" /><polyline fill="none" points="468.1322251030083,1084.3845574201637 460.17117526355753,1081.9222996998924 472.3897688867665,1077.3068756218493 468.1322251030083,1084.3845574201637" stroke="black" stroke-width="1" /><polyline fill="none" points="460.6411211721425,1081.7447833891983 472.2260172027758,1077.5790941525536 467.8441057210519,1084.283027649742 460.6411211721425,1081.7447833891983" stroke="black" stroke-width="1" /><polyline fill="none" points="472.05748214578637,1077.8369377485992 467.5670678537861,1084.1854028704904 461.08021197882107,1081.5944816337908 472.05748214578637,1077.8369377485992" stroke="black" stroke-width="1" /><polyline fill="none" points="467.31757339705666,1084.0857520536943 461.50241467755046,1081.4499607151295 471.8751779631429,1078.0772767603335 467.31757339705666,1084.0857520536943" stroke="black" stroke-width="1" /><polyline fill="none" points="461.9013671116117,1081.3202421014832 471.6998854798319,1078.3083719639242 467.1092577706934,1083.9793862863014 461.9013671116117,1081.3202421014832" stroke="black" stroke-width="1" /><polyline fill="none" points="700,1216.43556 1400,1216.43556 700.0,810.9570399999999 700,1216.43556" stroke="black" stroke-width="1" /><polyline fill="none" points="1373.076923076923,1200.840232307692 700.0,826.5523676923075 725.887573964497,1215.8357397041418 1373.076923076923,1200.840232307692" stroke="black" stroke-width="1" /><polyline fill="none" points="700.9956759217114,841.524805077378 750.7794720072826,1215.2589894196628 1347.227644340184,1187.020408183449 700.9956759217114,841.524805077378" stroke="black" stroke-width="1" /><polyline fill="none" points="773.7197863277788,1214.172890141347 1322.3725686317812,1173.7321157562924 703.7927570911755,855.8574237336845 773.7197863277788,1214.172890141347" stroke="black" stroke-width="1" /><polyline fill="none" points="1298.5810374186808,1161.5061660631152 706.4822582156603,869.638787826287 793.9067575235827,1212.1472469075688 1298.5810374186808,1161.5061660631152" stroke="black" stroke-width="1" /><polyline fill="none" points="709.8447389582727,882.8121900986439 813.3173067503171,1210.199513028936 1275.937333631742,1150.7871669875585 709.8447389582727,882.8121900986439" stroke="black" stroke-width="1" /><polyline fill="none" points="831.110384707295,1207.9144227965755 1254.164541528916,1140.4804371072157 714.508802256312,895.3161221254874 831.110384707295,1207.9144227965755" stroke="black" stroke-width="1" /><polyline fill="none" points="1233.408551556893,1131.0510403771493 718.9934785044268,907.33913368976 846.5833911245871,1204.9581388573667 1233.408551556893,1131.0510403771493" stroke="black" stroke-width="1" /><polyline fill="none" points="723.9007828359714,918.7860185038987 861.4612819104451,1202.1155581465891 1213.8120989137806,1122.887001074332 723.9007828359714,918.7860185038987" stroke="black" stroke-width="1" /><polyline fill="none" points="875.0132364105733,1199.0683059515022 1194.969355987711,1115.0369632831614 729.7128002811484,929.5661064826527 875.0132364105733,1199.0683059515022" stroke="black" stroke-width="1" /><polyline fill="none" points="1177.0748730759199,1107.903468790834 735.3012785938184,939.931575692993 886.6309916669328,1195.5619660607074 1177.0748730759199,1107.903468790834" stroke="black" stroke-width="1" /><polyline fill="none" points="741.1216521735536,949.7635137840589 897.801910182663,1192.1904853964816 1160.3074415027518,1101.8211628290348 741.1216521735536,949.7635137840589" stroke="black" stroke-width="1" /><polyline fill="none" points="907.8982767718973,1188.7147422208106 1144.1849111439365,1095.9727917119203 747.5361377350283,958.9539456470109 907.8982767718973,1188.7147422208106" stroke="black" stroke-width="1" /><polyline fill="none" points="1128.9291890897478,1090.7028360940392 753.7039123133694,967.7908993613877 916.3994657071992,1184.9450535236272 1128.9291890897478,1090.7028360940392" stroke="black" stroke-width="1" /><polyline fill="none" points="759.9614335977474,976.1429822137816 924.5736858372971,1181.3203528532583 1114.7381215708247,1086.2966878678753 759.9614335977474,976.1429822137816" stroke="black" stroke-width="1" /><polyline fill="none" points="931.8877025962789,1177.6655965076668 1101.092864341091,1082.0600068811793 766.5739824053832,983.8938519943156 931.8877025962789,1177.6655965076668" stroke="black" stroke-width="1" /><polyline fill="none" points="1088.2267534974098,1078.284385539377 772.9322024127252,991.3466113986751 937.9007430155531,1173.8432422396556 1088.2267534974098,1078.284385539377" stroke="black" stroke-width="1" /><polyline fill="none" points="779.2771462820647,998.3657125848666 943.6825126494706,1170.1679015973373 1076.3440762968196,1075.2105904257419 779.2771462820647,998.3657125848666" stroke="black" stroke-width="1" /><polyline fill="none" points="948.7848804820609,1166.5156973215067 1064.918425142406,1072.2550182010928 785.796674520526,1004.8330196901221 948.7848804820609,1166.5156973215067" stroke="black" stroke-width="1" /><polyline fill="none" points="1054.1829731954106,1069.6618644122093 792.0654516728927,1011.0515842144061 952.8386532787281,1162.7905499019182 1054.1829731954106,1069.6618644122093" stroke="black" stroke-width="1" /><polyline fill="none" points="798.2490363500401,1016.8876982793104 956.736511737062,1159.2086773830833 1044.3393602398194,1067.6320887917132 798.2490363500401,1016.8876982793104" stroke="black" stroke-width="1" /><polyline fill="none" points="960.1058520640911,1155.6865008988 1034.87434778252,1065.680381464313 804.4742984928882,1022.2261137646752 960.1058520640911,1155.6865008988" stroke="black" stroke-width="1" /><polyline fill="none" points="1026.0128074252264,1064.0090634758653 810.460127476396,1027.3592055775262 962.6407349625963,1152.1604456133025 1026.0128074252264,1064.0090634758653" stroke="black" stroke-width="1" /><polyline fill="none" points="816.3132277643267,1032.15925327121 965.0781223650051,1148.7700078387857 1017.9474389767303,1062.7840707756861 816.3132277643267,1032.15925327121" stroke="black" stroke-width="1" /><polyline fill="none" points="967.1115576193023,1145.462856413282 1010.1922770070223,1061.60619317936 822.1131635279796,1036.5170841612896 967.1115576193023,1145.462856413282" stroke="black" stroke-width="1" /><polyline fill="none" points="1002.958464950136,1060.6412274478957 827.6900248391843,1040.7073061709816 968.4902848243343,1142.2004860684594 1002.958464950136,1060.6412274478957" stroke="black" stroke-width="1" /><polyline fill="none" points="833.1054194539978,1044.6108900131921 969.8159840599419,1139.06359150613 996.4256555079769,1060.0246760080995 833.1054194539978,1044.6108900131921" stroke="black" stroke-width="1" /><polyline fill="none" points="970.8394329617894,1136.0236332177442 990.1441079674393,1059.4318380852185 838.4028815119898,1048.126764751829 970.8394329617894,1136.0236332177442" stroke="black" stroke-width="1" /><polyline fill="none" points="984.307906949922,1058.9970275723958 843.4965950292898,1051.5074135389796 971.3574511921022,1133.0610714621537 984.307906949922,1058.9970275723958" stroke="black" stroke-width="1" /><polyline fill="none" points="848.414320266321,1054.6440926898708 971.8555456443261,1130.2124543894706 979.0812305390142,1058.829606999991 848.414320266321,1054.6440926898708" stroke="black" stroke-width="1" /><polyline fill="none" points="972.133456601814,1127.466960259106 974.0555801439106,1058.668625680371 853.1727485869169,1057.4449722117645 972.133456601814,1127.466960259106" stroke="black" stroke-width="1" /><polyline fill="none" points="969.4062404686415,1058.6215620854246 857.7481604336436,1060.1381255982008 972.028563673615,1124.819060329349 969.4062404686415,1058.6215620854246" stroke="black" stroke-width="1" /><polyline fill="none" points="862.143560558258,1062.625853857091 971.9277050888084,1122.2730027045827 965.2807527797805,1058.7755733074118 862.143560558258,1062.625853857091" stroke="black" stroke-width="1" /><polyline fill="none" points="971.6720530769226,1119.8307938816147 961.3139376943373,1058.9236610208611 866.356194885899,1064.8260438580342 971.6720530769226,1119.8307938816147" stroke="black" stroke-width="1" /><polyline fill="none" points="957.6617168170895,1059.1506757453676 870.406804816323,1066.9416111666333 971.1331939900058,1117.4969431840666 957.6617168170895,1059.1506757453676" stroke="black" stroke-width="1" /><polyline fill="none" points="874.2808967076184,1068.8860470134575 970.6150602525859,1115.2528559748857 954.4547621974945,1059.5251131018324 874.2808967076184,1068.8860470134575" stroke="black" stroke-width="1" /><polyline fill="none" points="969.99351032739,1113.109481248999 951.3711519863454,1059.8851490215102 877.9621510776095,1070.5869483302092 969.99351032739,1113.109481248999" stroke="black" stroke-width="1" /><polyline fill="none" points="948.5477288744709,1060.2967566872294 881.5018187410626,1072.2224303655473 969.1686725792008,1111.0782226120077 948.5477288744709,1060.2967566872294" stroke="black" stroke-width="1" /><polyline fill="none" points="884.8736208117602,1073.7168839134881 968.3755593597881,1109.1250893072086 946.0987247182127,1060.8129154267008 884.8736208117602,1073.7168839134881" stroke="black" stroke-width="1" /><polyline fill="none" points="967.5187580274197,1107.266928773343 943.7439130295029,1061.3092219069617 888.0522799354395,1075.0072702542518 967.5187580274197,1107.266928773343" stroke="black" stroke-width="1" /><polyline fill="none" points="941.6019271412697,1061.836069920319 891.1086829389772,1076.24802635114 966.5219568394908,1105.5195880482265 941.6019271412697,1061.836069920319" stroke="black" stroke-width="1" /><polyline fill="none" points="894.0091934736123,1077.3738556471817 965.5634941587899,1103.8394527356147 939.7714373848213,1062.4336770636598 894.0091934736123,1077.3738556471817" stroke="black" stroke-width="1" /><polyline fill="none" points="964.5714919751757,1102.246922902078 938.011351080544,1063.0082993168721 896.7231280313647,1078.3305120800624 964.5714919751757,1102.246922902078" stroke="black" stroke-width="1" /><polyline fill="none" points="936.4233425017295,1063.5976151923794 899.332680490742,1079.2503740347552 963.4888708415816,1100.7604110670895 936.4233425017295,1063.5976151923794" stroke="black" stroke-width="1" /><polyline fill="none" points="901.8002262734665,1080.0776831513833 962.4478889823565,1099.331072764216 935.0916841852578,1064.2314639600334 901.8002262734665,1080.0776831513833" stroke="black" stroke-width="1" /><polyline fill="none" points="961.3957272593912,1097.981087810209 933.8112434963426,1064.8409339289312 904.0923609267713,1080.7662756382613 961.3957272593912,1097.981087810209" stroke="black" stroke-width="1" /><polyline fill="none" points="932.668209551359,1065.4534470715978 906.296336554949,1081.428383798721 960.2908227321592,1096.7300247048777 932.668209551359,1065.4534470715978" stroke="black" stroke-width="1" /><polyline fill="none" points="908.3730475617648,1082.0169084489578 959.2284145328975,1095.52707941129 931.7337802440669,1066.0905032784192 908.3730475617648,1082.0169084489578" stroke="black" stroke-width="1" /><polyline fill="none" points="958.1709285987117,1094.3949034061795 930.8352905255168,1066.70305732344 910.2883506785704,1082.4929851780817 958.1709285987117,1094.3949034061795" stroke="black" stroke-width="1" /><polyline fill="none" points="930.0450236083266,1067.3103622409262 912.1299882908835,1082.9507512637776 957.0891630221585,1093.353190284439 930.0450236083266,1067.3103622409262" stroke="black" stroke-width="1" /><polyline fill="none" points="913.8591873190094,1083.3508450722645 956.0490038139341,1092.3515430519963 929.4224914433528,1067.9273038882855 913.8591873190094,1083.3508450722645" stroke="black" stroke-width="1" /><polyline fill="none" points="955.0249071842962,1091.4121492380073 928.8239028231857,1068.5205170107463 915.442484236905,1083.6608952324852 955.0249071842962,1091.4121492380073" stroke="black" stroke-width="1" /><polyline fill="none" points="928.3092328775595,1069.1028392500439 916.9648851194969,1083.9590203865437 953.9973812494218,1090.5540988538546 928.3092328775595,1069.1028392500439" stroke="black" stroke-width="1" /><polyline fill="none" points="918.3892118937248,1084.2126772506708 953.0093755428117,1089.729050407554 927.9276936089504,1069.6839868654527 918.3892118937248,1084.2126772506708" stroke="black" stroke-width="1" /><polyline fill="none" points="952.0446954684323,1088.9580864251654 927.5608289275956,1070.2427826494995 919.6836535696751,1084.3951929881512 952.0446954684323,1088.9580864251654" stroke="black" stroke-width="1" /><polyline fill="none" points="927.2578606445986,1070.7871061240628 920.9283090273196,1084.5706888895747 951.0913556675156,1088.2592025674305 927.2578606445986,1070.7871061240628" stroke="black" stroke-width="1" /><polyline fill="none" points="922.0884262057887,1084.7125548002614 950.1746827820187,1087.5871988580702 927.0590362431059,1071.3227003039167 922.0884262057887,1084.7125548002614" stroke="black" stroke-width="1" /><polyline fill="none" points="949.285619453599,1086.961641221372 926.8678589339783,1071.8376947076222 923.1344720999351,1084.7990581241502 949.285619453599,1086.961641221372" stroke="black" stroke-width="1" /><polyline fill="none" points="926.7242671326688,1072.336208685181 924.1402854596914,1084.88223439712 948.4178751335633,1086.3991245853647 926.7242671326688,1072.336208685181" stroke="black" stroke-width="1" /><polyline fill="none" points="925.0740389086865,1084.9405763274372 947.5835055950673,1085.8582432045882 926.6607968163618,1072.8209920560369 925.0740389086865,1084.9405763274372" stroke="black" stroke-width="1" /><polyline fill="none" points="946.7787860266556,1085.3568104681053 926.5997676660666,1073.287129912629 925.9088368747622,1084.9565853328475 946.7787860266556,1085.3568104681053" stroke="black" stroke-width="1" /><polyline fill="none" points="926.5731934048625,1073.735955121099 926.711527226758,1084.9719786072806 946.0016478488943,1084.9098544932206 926.5731934048625,1073.735955121099" stroke="black" stroke-width="1" /><polyline fill="none" points="927.453454942994,1084.969589218278 945.2543996010469,1084.4800891327543 926.6070496178676,1074.1680179709906 927.453454942994,1084.969589218278" stroke="black" stroke-width="1" /><polyline fill="none" points="944.5371938324631,1084.083471011148 926.639603668834,1074.5834630189634 928.1105218233581,1084.935507748773 944.5371938324631,1084.083471011148" stroke="black" stroke-width="1" /><polyline fill="none" points="926.696177444008,1074.9816185854945 928.7423169006313,1084.9027371050183 943.8510008944456,1083.7333997640076 926.696177444008,1074.9816185854945" stroke="black" stroke-width="1" /><polyline fill="none" points="929.3234201311626,1084.8577625919024 943.1911999925057,1083.3967927956032 926.7972252396678,1075.3614702780485 929.3234201311626,1084.8577625919024" stroke="black" stroke-width="1" /><polyline fill="none" points="942.560662502012,1083.0877419295434 926.8943865816484,1075.7267122901196 929.8325448377337,1084.7896848741195 942.560662502012,1083.0877419295434" stroke="black" stroke-width="1" /><polyline fill="none" points="927.007392668421,1076.075288158735 930.3220878248213,1084.7242255300973 941.9624598161046,1082.8180321691277 927.007392668421,1076.075288158735" stroke="black" stroke-width="1" /><polyline fill="none" points="930.7697944398707,1084.6509104008292 941.387264925809,1082.5586958610356 927.1521004288613,1076.405119783431 930.7697944398707,1084.6509104008292" stroke="black" stroke-width="1" /><polyline fill="none" points="940.8397585990033,1082.3220198580507 927.2912425062078,1076.7222655764078 931.1571007536834,1084.5613376876452 940.8397585990033,1082.3220198580507" stroke="black" stroke-width="1" /><polyline fill="none" points="927.4399293618799,1077.0237683499167 931.5295106708111,1084.4752100788146 940.3243805514215,1082.1182409538915 927.4399293618799,1077.0237683499167" stroke="black" stroke-width="1" /><polyline fill="none" points="931.8677748969884,1084.3845574201637 939.8288247364392,1081.9222996998924 927.6102311132302,1077.3068756218493 931.8677748969884,1084.3845574201637" stroke="black" stroke-width="1" /><polyline fill="none" points="939.3588788278541,1081.7447833891983 927.7739827972208,1077.5790941525536 932.1558942789447,1084.283027649742 939.3588788278541,1081.7447833891983" stroke="black" stroke-width="1" /><polyline fill="none" points="927.9425178542101,1077.8369377485992 932.4329321462105,1084.1854028704904 938.9197880211756,1081.5944816337908 927.9425178542101,1077.8369377485992" stroke="black" stroke-width="1" /><polyline fill="none" points="932.6824266029399,1084.0857520536943 938.4975853224462,1081.4499607151295 928.1248220368535,1078.0772767603335 932.6824266029399,1084.0857520536943" stroke="black" stroke-width="1" /><polyline fill="none" points="938.0986328883848,1081.3202421014832 928.3001145201645,1078.3083719639242 932.8907422293031,1083.9793862863014 938.0986328883848,1081.3202421014832" stroke="black" stroke-width="1" /></svg>